<svg
	xmlns="http://www.w3.org/2000/svg"
	width="1.2em"
	height="1.2em"
	viewBox="0 0 24 24"
>
	<path
		fill="none"
		stroke="currentColor"
		stroke-linejoin="round"
		stroke-width="1.5"
		d="M21.247 5.646c.068-1.031-.695-1.98-1.702-1.724c-3.68.933-6.648 5.997-7.545 7.755c-.896-1.758-3.865-6.822-7.545-7.755c-1.007-.255-1.77.693-1.702 1.724l.3 4.466c.151 2.28 2.116 4.014 4.41 3.894l.49-.036c-.039.007-2.904.518-3.39 1.981c-.658 1.983 1.28 3.408 1.28 3.408c.022.024 1.894 2.096 3.765.899c1.463-.71 2.393-4.01 2.393-4.01s.929 3.3 2.392 4.01c1.88 1.203 3.762-.896 3.764-.9c.016-.01 1.935-1.431 1.28-3.407c-.49-1.473-3.391-1.98-3.391-1.98l.493.035c2.293.12 4.258-1.615 4.41-3.894z"
	/>
</svg>
