<svg
    xmlns="http://www.w3.org/2000/svg"
    width="100%"
    height="100%"
    fill="none"
    viewBox="0 0 500 473"
>
    <g clip-path="url(#ghost-logo-rainbow-clip)">
        <path
            fill="#DB955B"
            d="M478.695 278.613c-43.275 1.533-37.645-8.155-31.121-42.741a71.959 71.959 0 0 1 31.121 42.741Z"
        />
        <path
            fill="#DC965B"
            d="M431.804 49.869c-21.66.785-39.36-11.027-50.387-29.512a147.832 147.832 0 0 1 50.387 29.512Z"
        />
        <path
            fill="#C6753A"
            d="M485.688 303.087c-13.054-6.118-22.325-4.986-32.677-9.664-16.287-7.796-21.635-20.165-26.574-35.601-1.481-4.626-3.637-9.61-5.467-13.223-4.498-7.473-8.286-14.07-16.911-18.055 13.114 1.494 31.86 2.699 43.446 9.086 1.528 1.869 1.155 4.111.781 6.353-.408 7.135-1.155 13.896-1.155 20.997-.748 17.6 20.997 11.994 31.495 15.357 2.242 7.475 5.193 17.615 7.062 24.75Zm-42-235.52a1083.48 1083.48 0 0 1-13.068-1.41c-37.558 3.789-55.874-38.414-87.262-51.228 10.499.34 28.075 1.865 38.2 5.228.374 0 .374.374.748.374 2.65 1.869 4.145 4.859 6.013 7.475a50.12 50.12 0 0 0 38.97 19.876c1.121 0 2.242 0 3.398.747 5.342 5.452 9.609 12.1 13.001 18.938Z"
        />
        <path
            fill="#DB965B"
            d="M431.313 440.209c7.849-21.744 18.194-39.385 44.05-37.551-6.303 18.504-26.571 31.272-44.05 37.551ZM391.19 153.753c10.125-16.478 25.142-38.188 47.566-32.209-10.091 18.007-29.219 25.822-47.566 32.209Z"
        />
        <path
            fill="#DC985F"
            d="M486.39 359.237c-1.903-5.606-8.63-15.085-6.761-20.725 1.121-1.461 3.737-1.461 5.979-2.209l.717-.74.065 23.674Z"
        />
        <path
            fill="#C67539"
            d="M403.251 450.155c17.6-14.27 20.861-37.781 34.35-55.04 6.387-7.475 16.852-10.872 25.142-16.105 7.814-5.232 8.969-13.488 3.329-20.996-6.727-7.135-13.488-16.479-7.135-25.822 6.014-8.63 18.381-4.145 27.385-5.266 0 2.99.747 6.387 0 9.377-.374.748-1.495.748-2.243 1.121-8.63 1.495 1.121 15.357 2.243 19.842.747 16.138-4.859 31.495-11.212 46.105-1.903 1.121-4.145 1.121-6.388 1.121-21.37-1.495-28.879 20.249-37.101 35.606-9.751 3.738-19.366 7.067-28.37 10.057Z"
        />
        <path
            fill="#71B4CE"
            d="M284.673 471.538c96.993-95.465 110.203-187.744 44.274-253.673 26.603-2.99 54.021-2.99 78.348 8.629 14.983 6.014 22.118 22.085 26.602 36.354 7.135 29.593 27.758 26.977 49.469 37.101 17.633 7.475 24.734 16.478 3.737 26.603-.833.677-2.242.748-3.363.748h-12.368c-10.872-1.495-16.851 11.993-11.211 20.623 8.222 10.124 17.973 20.589 4.077 31.461a48.84 48.84 0 0 1-11.586 6.014c-17.226 6.727-22.084 25.481-29.593 40.431-19.502 47.633-96.052 44.622-138.386 45.709Zm6.494-298.997c-1.156-.373-2.277-.373-3.398-.747 36.481-41.025 74.135-138.188 1.596-170.322 20.25-1.121 40.364 5.439 59.118 13.321 29.593 11.212 38.609 45.1 78.314 50.964 5.783.853 7.258-.196 14.919 1.213 14.27 1.868 20.313 10.406 22.148 25.39 1.902 8.969-9.343 11.211-17.226 10.871-29.966-.781-43.454 17.226-61.427 37.815-25.142 31.122-56.23 32.617-94.078 31.495h.034Z"
        />
        <path
            fill="#DB965B"
            d="M194.846 322.441c-30.374-30.374-33.021-38.802-22.896-78.52.373-4.145-.748-8.629-1.495-12.741-3.738-18.346 15.931-34.482 32.783-37.472-36.354 38.97-20.623 105.494 25.855 128.733-7.474.748-13.423 2.905-20.897 3.652-3.398 1.121-8.491-1.817-11.855-2.531-.748 0-1.495-.373-1.495-1.121Z"
        />
        <path
            fill="#C57539"
            d="M194.472 181.171c13.862-2.65 27.181-7.576 41.416-7.576a83.302 83.302 0 0 0-32.82 20.317c-12.741 4.858-24.734 12.367-28.098 26.603-1.494 4.485-.339 8.969.748 13.114 1.869 7.135 1.121 14.236-1.121 21.337-10.499 25.855-1.869 45.357 17.599 63.704 1.121 1.155 2.65 1.903 2.65 3.737-1.121 1.529-2.65.782-3.737.408-11.373-3.03-25.426-9.391-33.619-17.841a64.918 64.918 0 0 1-16.611-30.429c-2.65-9.751 4.485-16.852 11.212-23.24a36.179 36.179 0 0 0 10.124-19.841c1.122-8.256-8.595-13.862-4.484-22.492 4.858-14.27 22.064-24.437 36.673-27.801h.068Z"
        />
        <path
            fill="#72B4CE"
            d="M194.846 322.441c3.737.748 7.675.793 11.42 1.115-21.787 12.292-51.852 6.965-72.476-3.873-35.98-17.26-48.347-54.701-32.956-91.054 14.61-34.485 56.479-49.396 93.638-47.458-13.488 4.485-41.62 23.205-31.121 40.091a16.818 16.818 0 0 1 1.291 18.143 67.54 67.54 0 0 1-14.032 18.585c-6.353 5.606-7.135 12.74-4.485 20.589 7.849 22.865 23.987 38.97 48.721 43.828v.034Z"
        />
        <path
            fill="#C5753A"
            d="M365.063 159.325c26.603-19.502 43.489-61.054 82.085-56.196-3.024 6.388-5.368 12.062-8.358 18.449-1.121.748-1.869.34-2.99.34-21.744-2.956-33.364 17.259-44.61 31.869-8.629 1.903-17.531 3.669-26.161 5.538h.034Z"
        />
        <path
            fill="#91C7E1"
            d="M235.685 173.663c18.346-.748 37.101-1.495 55.448-1.122 0-1.121-.748-1.121-1.122-1.121 37.849-9.751 68.223-62.956 63.331-101.179-2.616-34.485-31.517-63.787-59.186-68.97C115.004-17.484-56.233 174.784 17.596 348.67 73.418 474.957 152.48 474.583 274.655 471.933c16.196-.351 19.799.12 27.35-1.495 45.471-15.887 90.68-52.832 98.936-104.168 6.354-33.33 2.617-67.85-1.121-101.145-3.737-37.136-38.97-46.479-70.839-47.226-68.936 8.629-97.407 20.215-89.185 96.286 1.121 6.761-11.62 7.882-11.62 7.882s-14.609 1.835-22.118 1.495c-41.96 17.226-101.926-9.751-105.664-58.098-1.495-27.35 10.872-54.7 35.641-67.815 17.973-10.124 37.206-10.853 58.437-15.73 23.4-5.376 27.17-5.986 40.191-8.091l1.022-.165Z"
        />
        <path
            fill="#A2D6EA"
            d="M187.337 349.791c36.354 2.243 106.785-9.751 131.519 20.59 8.256 10.872 6.762 22.491-4.858 30.374-34.111 20.963-91.428 20.215-131.145 21.336-59.593-1.868-117.657-43.081-141.27-97.781C8.626 243.346 65.535 94.975 151.73 67.625c39.344-15.017 123.671-41.994 162.641-23.613 20.997 11.212 15.73 42.334-2.243 53.58-9.377 5.979-16.478 15.356-15.357 26.976-.747 30.748-40.872 23.239-61.495 19.876-26.195-3.738-51.677 6.353-77.532 9.343-47.226 6.014-82.459 35.232-88.438 83.953-6.388 44.61 16.851 96.695 63.33 107.906 18.007 4.145 36.693 4.145 54.7 4.145Z"
        />
        <path
            fill="#A1D5EA"
            d="M314.745 244.467c35.98 1.903 62.583 36.014 68.189 69.718 4.145 13.862-2.242 63.33-24.734 51.711a52.73 52.73 0 0 1-16.478-14.983c-10.498-13.115-22.866-23.987-39.344-28.88a136.535 136.535 0 0 1-23.986-10.464c-16.852-8.63-13.115-24.36-5.233-38.596 7.475-16.104 23.24-29.627 41.586-28.472v-.034Z"
        />
        <path
            fill="#B5E4F1"
            d="M236.058 415.364c-21.37-2.242-127.782-4.485-123.671-34.485 6.388-22.832 65.573-3.364 83.58-2.242a296.666 296.666 0 0 0 26.229 2.242c16.105 1.495 31.835.374 47.226-4.485 7.135-2.242 14.61-3.737 22.084-2.242 23.987 6.353 1.121 31.461-13.114 34.825-14.236 5.64-26.977 5.266-42.334 6.387ZM224.472 64.635c5.386.227 8.97 1.121 14.576 2.243 6.014 1.495 9.377 7.848 3.737 13.114-13.862 13.488-34.825 14.236-52.832 18.347-28.097 3.737-47.565 25.855-74.576 32.616-10.09 3.364-22.084-2.616-16.852-14.609 12.741-20.997 44.61-32.99 66.694-41.246 19.128-7.135 42.237-9.723 58.438-10.465h.815Zm83.546 1.649c-1.121 23.953-37.101 24.173-37.475-1.309.748-23.579 37.101-24.734 37.475.747v.562Zm0 197.685a61.359 61.359 0 0 1 58.812 38.97c6.387 15.357-7.135 35.233-22.492 21.745-10.872-12.741-21.337-29.593-40.839-26.977a15.829 15.829 0 0 1-15.356-7.135c-4.111-5.606-4.859-15.357-.748-20.589 4.859-6.761 13.488-5.266 20.623-6.014Z"
        />
        <mask
            id="ghost-logo-rainbow-mask"
            width="500"
            height="473"
            x="0"
            y="0"
            maskUnits="userSpaceOnUse"
            style="mask-type: alpha"
        >
            <path
                fill="#71B4CE"
                d="M284.673 471.538c96.993-95.465 110.203-187.744 44.274-253.673 26.603-2.99 54.021-2.99 78.348 8.629 14.983 6.014 22.118 22.085 26.602 36.354 7.135 29.593 27.758 26.977 49.469 37.101 17.633 7.475 24.734 16.478 3.737 26.603-.833.677-2.242.748-3.363.748h-12.368c-10.872-1.495-16.851 11.993-11.211 20.623 8.222 10.124 17.973 20.589 4.077 31.461a48.84 48.84 0 0 1-11.586 6.014c-17.226 6.727-22.084 25.481-29.593 40.431-19.502 47.633-96.052 44.622-138.386 45.709Zm6.494-298.997c-1.156-.373-2.277-.373-3.398-.747 36.481-41.025 74.135-138.188 1.596-170.322 20.25-1.121 40.364 5.439 59.118 13.321 29.593 11.212 38.609 45.1 78.314 50.964 5.783.853 7.258-.196 14.919 1.213 14.27 1.868 20.313 10.406 22.148 25.39 1.902 8.969-9.343 11.211-17.226 10.871-29.966-.781-43.454 17.226-61.427 37.815-25.142 31.122-56.23 32.617-94.078 31.495h.034Z"
            />
            <path
                fill="#72B4CE"
                d="M194.846 322.441c3.737.748 7.675.793 11.42 1.115-21.787 12.292-51.852 6.965-72.476-3.873-35.98-17.26-48.347-54.701-32.956-91.054 14.61-34.485 56.479-49.396 93.638-47.458-13.488 4.485-41.62 23.205-31.121 40.091a16.818 16.818 0 0 1 1.291 18.143 67.54 67.54 0 0 1-14.032 18.585c-6.353 5.606-7.135 12.74-4.485 20.589 7.849 22.865 23.987 38.97 48.721 43.828v.034Z"
            />
            <path
                fill="#91C7E1"
                d="M235.685 173.663c18.346-.748 37.101-1.495 55.448-1.122 0-1.121-.748-1.121-1.122-1.121 37.849-9.751 68.223-62.956 63.331-101.179-2.616-34.485-31.517-63.787-59.186-68.97C115.004-17.484-56.233 174.784 17.596 348.67 73.418 474.957 152.48 474.583 274.655 471.933c16.196-.351 19.799.12 27.35-1.495 45.471-15.887 90.68-52.832 98.936-104.168 6.354-33.33 2.617-67.85-1.121-101.145-3.737-37.136-38.97-46.479-70.839-47.226-68.936 8.629-97.407 20.215-89.185 96.286 1.121 6.761-11.62 7.882-11.62 7.882s-14.609 1.835-22.118 1.495c-41.96 17.226-101.926-9.751-105.664-58.098-1.495-27.35 10.872-54.7 35.641-67.815 17.973-10.124 37.206-10.853 58.437-15.73 23.4-5.376 27.17-5.986 40.191-8.091l1.022-.165Z"
            />
            <path
                fill="#A2D6EA"
                d="M187.337 349.791c36.354 2.243 106.785-9.751 131.519 20.59 8.256 10.872 6.762 22.491-4.858 30.374-34.111 20.963-91.428 20.215-131.145 21.336-59.593-1.868-117.657-43.081-141.27-97.781C8.626 243.346 65.535 94.975 151.73 67.625c39.344-15.017 123.671-41.994 162.641-23.613 20.997 11.212 15.73 42.334-2.243 53.58-9.377 5.979-16.478 15.356-15.357 26.976-.747 30.748-40.872 23.239-61.495 19.876-26.195-3.738-51.677 6.353-77.532 9.343-47.226 6.014-82.459 35.232-88.438 83.953-6.388 44.61 16.851 96.695 63.33 107.906 18.007 4.145 36.693 4.145 54.7 4.145Z"
            />
            <path
                fill="#A1D5EA"
                d="M314.745 244.467c35.98 1.903 62.583 36.014 68.189 69.718 4.145 13.862-2.242 63.33-24.734 51.711a52.73 52.73 0 0 1-16.478-14.983c-10.498-13.115-22.866-23.987-39.344-28.88a136.535 136.535 0 0 1-23.986-10.464c-16.852-8.63-13.115-24.36-5.233-38.596 7.475-16.104 23.24-29.627 41.586-28.472v-.034Z"
            />
            <path
                fill="#B5E4F1"
                d="M236.058 415.364c-21.37-2.242-127.782-4.485-123.671-34.485 6.388-22.832 65.573-3.364 83.58-2.242a296.666 296.666 0 0 0 26.229 2.242c16.105 1.495 31.835.374 47.226-4.485 7.135-2.242 14.61-3.737 22.084-2.242 23.987 6.353 1.121 31.461-13.114 34.825-14.236 5.64-26.977 5.266-42.334 6.387ZM224.472 64.635c5.386.227 8.97 1.121 14.576 2.243 6.014 1.495 9.377 7.848 3.737 13.114-13.862 13.488-34.825 14.236-52.832 18.347-28.097 3.737-47.565 25.855-74.576 32.616-10.09 3.364-22.084-2.616-16.852-14.609 12.741-20.997 44.61-32.99 66.694-41.246 19.128-7.135 42.237-9.723 58.438-10.465h.815Zm83.546 1.649c-1.121 23.953-37.101 24.173-37.475-1.309.748-23.579 37.101-24.734 37.475.747v.562Zm0 197.685a61.359 61.359 0 0 1 58.812 38.97c6.387 15.357-7.135 35.233-22.492 21.745-10.872-12.741-21.337-29.593-40.839-26.977a15.829 15.829 0 0 1-15.356-7.135c-4.111-5.606-4.859-15.357-.748-20.589 4.859-6.761 13.488-5.266 20.623-6.014Z"
            />
        </mask>
        <g mask="url(#ghost-logo-rainbow-mask)" opacity=".56">
            <path fill="#F21220" d="M-12.534-51.432h552.23v93.484h-552.23z" />
            <path fill="#FFF400" d="M-12.534 135.536h552.23v93.484h-552.23z" />
            <path fill="#59BED6" d="M-12.534 322.503h552.23v93.484h-552.23z" />
            <path fill="#FF8E00" d="M-12.534 42.052h552.23v93.484h-552.23z" />
            <path fill="#5DF487" d="M-12.534 229.019h552.23v93.484h-552.23z" />
            <path fill="#73128A" d="M-12.534 415.987h552.23v93.484h-552.23z" />
        </g>
    </g>
    <defs>
        <clipPath id="ghost-logo-rainbow-clip"><path fill="#fff" d="M0 0h500v472.578H0z" /></clipPath>
    </defs>
</svg>
